<?xml version="1.0" encoding="utf-8"?>
<!-- Generator: Adobe Illustrator 25.4.1, SVG Export Plug-In . SVG Version: 6.00 Build 0)  -->
<svg version="1.1" xmlns="http://www.w3.org/2000/svg" xmlns:xlink="http://www.w3.org/1999/xlink"
	x="0px" y="0px"
	viewBox="0 0 143 230" style="enable-background:new 0 0 143 230;" xml:space="preserve">

<g id="Capa_1">
	<g transform="translate(0.000000,230.000000) scale(0.100000,-0.100000)">
		<path d="M498.3,2232.9c-12.5-23.9-0.5-2060.7,13-2107.2c14.2-50.5,39-64.9,122.9-69.9c127.3-7,382.3-4.5,402.4,4.2
			c33,14.3,31,66.8-9.2,320.8c-93.8,596.9-205.9,1120.4-338.4,1592.6c-53.9,192.4-84.4,263.1-120.7,279
			C537.3,2266.1,513.2,2258.9,498.3,2232.9z M639,1796.9c8.2-6.3,327.8-1613.5,323.2-1625.4c-3.6-9.2-324-19.3-328-10.1
			c-10.3,23.9-25,1631.3-14.9,1635.6C625.8,1799.9,634.7,1799.4,639,1796.9z"/>
	</g>
	<path class="st0" d="M62,29.5"/>
	<path class="st1" d="M-204.2,40.3c-0.1,0-0.1,0-0.2,0"/>
</g>

</svg>